<?xml version="1.0" encoding="UTF-8"?>
<svg version="1.1" xmlns="http://www.w3.org/2000/svg" width="140" height="29">
<path d="M0 0 C5.26013074 0.63337844 10.36025976 0.48379577 15.64453125 0.20703125 C19.44831059 0.66069301 21.01257965 1.79780743 23.625 4.5625 C24.44087578 7.61129897 24.17044085 10.46598683 23.625 13.5625 C22.125 16.125 22.125 16.125 20.625 17.5625 C22.37434898 19.64583079 22.37434898 19.64583079 24.625 21.5625 C25.945 21.5625 27.265 21.5625 28.625 21.5625 C27.965 21.19125 27.305 20.82 26.625 20.4375 C24.625 18.5625 24.625 18.5625 24.25 15.5 C24.625 12.5625 24.625 12.5625 26.625 10.5625 C29.0078125 10.3671875 29.0078125 10.3671875 31.75 10.4375 C34.163125 10.499375 34.163125 10.499375 36.625 10.5625 C36.625 6.9325 36.625 3.3025 36.625 -0.4375 C38.935 -0.4375 41.245 -0.4375 43.625 -0.4375 C43.625 3.1925 43.625 6.8225 43.625 10.5625 C45.83854167 10.52994792 48.05208333 10.49739583 50.265625 10.46484375 C52.625 10.5625 52.625 10.5625 54.859375 11.12890625 C55.73335937 11.34353516 55.73335937 11.34353516 56.625 11.5625 C56.955 11.2325 57.285 10.9025 57.625 10.5625 C59.1137186 10.47580568 60.606445 10.45546506 62.09765625 10.46484375 C62.99677734 10.46806641 63.89589844 10.47128906 64.82226562 10.47460938 C65.76779297 10.48298828 66.71332031 10.49136719 67.6875 10.5 C69.1115918 10.50676758 69.1115918 10.50676758 70.56445312 10.51367188 C72.91803065 10.5254989 75.27148477 10.54197975 77.625 10.5625 C78.615 13.0375 78.615 13.0375 79.625 15.5625 C81.8486068 13.6370356 81.8486068 13.6370356 82.625 10.5625 C84.605 10.5625 86.585 10.5625 88.625 10.5625 C89.615 13.5325 89.615 13.5325 90.625 16.5625 C91.285 16.5625 91.945 16.5625 92.625 16.5625 C92.769375 15.758125 92.91375 14.95375 93.0625 14.125 C93.625 11.5625 93.625 11.5625 94.625 10.5625 C97.29558851 10.42134839 99.94932238 10.52002893 102.625 10.5625 C101.13595825 14.45858498 99.38121287 18.15347018 97.5 21.875 C96.96117187 22.94363281 96.42234375 24.01226563 95.8671875 25.11328125 C95.45726562 25.92152344 95.04734375 26.72976562 94.625 27.5625 C92.645 27.5625 90.665 27.5625 88.625 27.5625 C87.635 25.0875 87.635 25.0875 86.625 22.5625 C84.4013932 24.4879644 84.4013932 24.4879644 83.625 27.5625 C80.875 27.875 80.875 27.875 77.625 27.5625 C75.25 25.0625 75.25 25.0625 73.625 22.5625 C72.84125 23.366875 72.0575 24.17125 71.25 25 C68.13166913 28.04408489 67.5688569 28.51006351 63.25 28.75 C59.95432477 28.57953404 58.3413171 28.30094294 55.625 26.5625 C55.13 27.0575 55.13 27.0575 54.625 27.5625 C52.62541636 27.60330783 50.62454746 27.60504356 48.625 27.5625 C48.13 22.1175 48.13 22.1175 47.625 16.5625 C46.635 16.5625 45.645 16.5625 44.625 16.5625 C44.295 20.1925 43.965 23.8225 43.625 27.5625 C40.59765625 27.51367188 40.59765625 27.51367188 37.5703125 27.46484375 C35.54314596 27.43600758 35.54314596 27.43600758 33.625 28.5625 C20.64733917 28.91573811 20.64733917 28.91573811 16.5234375 26.15625 C15.1875 24.5 15.1875 24.5 13.625 21.5625 C13.295 23.5425 12.965 25.5225 12.625 27.5625 C9.29166667 27.5625 5.95833333 27.5625 2.625 27.5625 C1.635 27.8925 0.645 28.2225 -0.375 28.5625 C-5.64071469 28.95991243 -8.8193154 28.2292422 -13.375 25.5625 C-12.5 20.8125 -12.5 20.8125 -11.375 18.5625 C-8.405 19.2225 -5.435 19.8825 -2.375 20.5625 C-2.375 19.9025 -2.375 19.2425 -2.375 18.5625 C-4.32530467 17.22903588 -6.36504369 16.12358684 -8.4296875 14.9765625 C-10.6440061 13.36695742 -11.24982271 12.01112094 -12.375 9.5625 C-12.86871094 10.77808594 -13.36242187 11.99367188 -13.87109375 13.24609375 C-14.51809709 14.8307831 -15.1652397 16.41541559 -15.8125 18 C-16.13798828 18.80244141 -16.46347656 19.60488281 -16.79882812 20.43164062 C-17.11142578 21.19541016 -17.42402344 21.95917969 -17.74609375 22.74609375 C-18.03411865 23.45306396 -18.32214355 24.16003418 -18.61889648 24.88842773 C-19.375 26.5625 -19.375 26.5625 -20.375 27.5625 C-22.37458364 27.60330783 -24.37545254 27.60504356 -26.375 27.5625 C-28.05031673 23.62862462 -29.71375803 19.68983737 -31.375 15.75 C-32.09042969 14.07067383 -32.09042969 14.07067383 -32.8203125 12.35742188 C-33.27148438 11.28427734 -33.72265625 10.21113281 -34.1875 9.10546875 C-34.81591797 7.6208313 -34.81591797 7.6208313 -35.45703125 6.10620117 C-36.375 3.5625 -36.375 3.5625 -36.375 0.5625 C-33.735 0.5625 -31.095 0.5625 -28.375 0.5625 C-26.725 4.8525 -25.075 9.1425 -23.375 13.5625 C-21.19668139 9.2784734 -19.06442185 5.06762494 -17.375 0.5625 C-14.04166667 0.5625 -10.70833333 0.5625 -7.375 0.5625 C-4.30485069 -0.4608831 -3.11102334 -0.41859284 0 0 Z M4.625 5.5625 C4.295 6.2225 3.965 6.8825 3.625 7.5625 C1.315 7.2325 -0.995 6.9025 -3.375 6.5625 C-3.705 7.5525 -4.035 8.5425 -4.375 9.5625 C-1.075 11.2125 2.225 12.8625 5.625 14.5625 C5.625 11.5925 5.625 8.6225 5.625 5.5625 C5.295 5.5625 4.965 5.5625 4.625 5.5625 Z M12.625 6.5625 C12.625 8.2125 12.625 9.8625 12.625 11.5625 C13.945 11.2325 15.265 10.9025 16.625 10.5625 C16.295 9.2425 15.965 7.9225 15.625 6.5625 C14.635 6.5625 13.645 6.5625 12.625 6.5625 Z M35.625 15.5625 C36.625 17.5625 36.625 17.5625 36.625 17.5625 Z M60.625 16.5625 C60.625 18.2125 60.625 19.8625 60.625 21.5625 C61.945 21.8925 63.265 22.2225 64.625 22.5625 C65.73336423 20.67933841 65.73336423 20.67933841 66.625 18.5625 C66.295 17.9025 65.965 17.2425 65.625 16.5625 C63.975 16.5625 62.325 16.5625 60.625 16.5625 Z " fill="#EC3232" transform="translate(37.375,0.4375)"/>
<path d="M0 0 C2.31 0 4.62 0 7 0 C7 3.63 7 7.26 7 11 C9.21354167 10.96744792 11.42708333 10.93489583 13.640625 10.90234375 C16 11 16 11 18.234375 11.56640625 C19.10835937 11.78103516 19.10835937 11.78103516 20 12 C20.33 11.67 20.66 11.34 21 11 C22.4887186 10.91330568 23.981445 10.89296506 25.47265625 10.90234375 C26.37177734 10.90556641 27.27089844 10.90878906 28.19726562 10.91210938 C29.14279297 10.92048828 30.08832031 10.92886719 31.0625 10.9375 C32.01189453 10.94201172 32.96128906 10.94652344 33.93945312 10.95117188 C36.29303065 10.9629989 38.64648477 10.97947975 41 11 C41.66 12.65 42.32 14.3 43 16 C45.2236068 14.0745356 45.2236068 14.0745356 46 11 C47.98 11 49.96 11 52 11 C52.99 13.97 52.99 13.97 54 17 C54.66 17 55.32 17 56 17 C56.144375 16.195625 56.28875 15.39125 56.4375 14.5625 C57 12 57 12 58 11 C60.67058851 10.85884839 63.32432238 10.95752893 66 11 C64.51095825 14.89608498 62.75621287 18.59097018 60.875 22.3125 C60.33617187 23.38113281 59.79734375 24.44976563 59.2421875 25.55078125 C58.83226562 26.35902344 58.42234375 27.16726562 58 28 C56.02 28 54.04 28 52 28 C51.34 26.35 50.68 24.7 50 23 C47.7763932 24.9254644 47.7763932 24.9254644 47 28 C44.25 28.3125 44.25 28.3125 41 28 C38.625 25.5 38.625 25.5 37 23 C36.21625 23.804375 35.4325 24.60875 34.625 25.4375 C31.50666913 28.48158489 30.9438569 28.94756351 26.625 29.1875 C23.32932477 29.01703404 21.7163171 28.73844294 19 27 C18.67 27.33 18.34 27.66 18 28 C16.00041636 28.04080783 13.99954746 28.04254356 12 28 C11.67 24.37 11.34 20.74 11 17 C10.01 17 9.02 17 8 17 C7.67 20.63 7.34 24.26 7 28 C4.98177083 27.96744792 2.96354167 27.93489583 0.9453125 27.90234375 C-1.08185404 27.87350758 -1.08185404 27.87350758 -3 29 C-5.3329866 29.04022391 -7.66706666 29.04320247 -10 29 C-10 28.34 -10 27.68 -10 27 C-10.66 27 -11.32 27 -12 27 C-12 25.35 -12 23.7 -12 22 C-10.68 22 -9.36 22 -8 22 C-8.66 21.62875 -9.32 21.2575 -10 20.875 C-12 19 -12 19 -12.375 15.9375 C-12 13 -12 13 -10 11 C-7.6171875 10.8046875 -7.6171875 10.8046875 -4.875 10.875 C-2.461875 10.936875 -2.461875 10.936875 0 11 C0 7.37 0 3.74 0 0 Z M-1 16 C0 18 0 18 0 18 Z M24 17 C24 18.65 24 20.3 24 22 C25.32 22.33 26.64 22.66 28 23 C29.10836423 21.11683841 29.10836423 21.11683841 30 19 C29.67 18.34 29.34 17.68 29 17 C27.35 17 25.7 17 24 17 Z " fill="#FBFBFB" transform="translate(74,0)"/>
<path d="M0 0 C3.34097385 0.59660247 5.54300129 1.63075125 8 4 C8 5.32 8 6.64 8 8 C8.66 8.33 9.32 8.66 10 9 C2.59359191 9.4856661 2.59359191 9.4856661 -0.0625 7.3125 C-1.22167778 4.45319482 -0.88910615 2.90980194 0 0 Z " fill="#FB3030" transform="translate(54,19)"/>
<path d="M0 0 C0.99 0.66 1.98 1.32 3 2 C3 3.32 3 4.64 3 6 C3.66 6.33 4.32 6.66 5 7 C3.72125 7.061875 2.4425 7.12375 1.125 7.1875 C0.40570313 7.22230469 -0.31359375 7.25710937 -1.0546875 7.29296875 C-1.69664063 7.19628906 -2.33859375 7.09960938 -3 7 C-3.66 6.01 -4.32 5.02 -5 4 C-2.525 4.495 -2.525 4.495 0 5 C0 3.35 0 1.7 0 0 Z " fill="#E14343" transform="translate(59,21)"/>
<path d="M0 0 C2.86724686 0.57344937 3.8614515 0.8614515 6 3 C5.34 3 4.68 3 4 3 C3.67 3.99 3.34 4.98 3 6 C2.34 5.67 1.68 5.34 1 5 C0.375 2.4375 0.375 2.4375 0 0 Z " fill="#FB2F2D" transform="translate(26,5)"/>
</svg>
